<svg width="32" height="42" viewBox="0 0 32 42" fill="none" xmlns="http://www.w3.org/2000/svg">
<path fill-rule="evenodd" clip-rule="evenodd" d="M2.66702 18.25H29.3329C29.3276 13.9596 29.2516 11.7181 28.1617 10.2877C26.9901 8.75 25.1045 8.75 21.3333 8.75H10.6666C6.89539 8.75 5.00977 8.75 3.8382 10.2877C2.74833 11.7181 2.67232 13.9596 2.66702 18.25ZM29.3333 20.25H2.66663V24.5C2.66663 29.4497 2.66663 31.9246 3.8382 33.4623C5.00977 35 6.89539 35 10.6666 35H21.3333C25.1045 35 26.9901 35 28.1617 33.4623C29.3333 31.9246 29.3333 29.4498 29.3333 24.5V24.5V20.25ZM9.33329 27C8.78101 27 8.33329 27.4477 8.33329 28C8.33329 28.5523 8.78101 29 9.33329 29H9.34663C9.89891 29 10.3466 28.5523 10.3466 28C10.3466 27.4477 9.89891 27 9.34663 27H9.33329Z" fill="#222222"/>
</svg>
