<svg width="34" height="34" viewBox="0 0 34 34" fill="none" xmlns="http://www.w3.org/2000/svg">
<path fill-rule="evenodd" clip-rule="evenodd" d="M3.77304 15.2504C5.513 12.4036 9.7364 7.08333 17 7.08333C24.2635 7.08333 28.4869 12.4036 30.2269 15.2504C30.6786 15.9893 30.9044 16.3588 30.8813 16.9627C30.8582 17.5666 30.5957 17.9302 30.0708 18.6575C28.034 21.4799 23.2937 26.9167 17 26.9167C10.7063 26.9167 5.96595 21.4799 3.92912 18.6575C3.40423 17.9302 3.14179 17.5666 3.11868 16.9627C3.09557 16.3588 3.32139 15.9893 3.77304 15.2504ZM17 22.6667C20.1296 22.6667 22.6666 20.1296 22.6666 17C22.6666 13.8704 20.1296 11.3333 17 11.3333C13.8704 11.3333 11.3333 13.8704 11.3333 17C11.3333 20.1296 13.8704 22.6667 17 22.6667Z" fill="#222222"/>
</svg>
