<svg width="56" height="44" viewBox="0 0 56 44" fill="none" xmlns="http://www.w3.org/2000/svg">
<path fill-rule="evenodd" clip-rule="evenodd" d="M12.3071 18.5647C11.6667 19.6587 11.6667 20.9033 11.6667 23.3925V31.1666C11.6667 34.6235 11.6667 36.352 13.0335 37.4259C14.4003 38.4999 16.6002 38.4999 21 38.4999H21.1667V29.3333C21.1667 27.5573 22.8972 26.5 24.5 26.5H31.5C33.1029 26.5 34.8333 27.5573 34.8333 29.3333V38.4999H35C39.3998 38.4999 41.5997 38.4999 42.9665 37.4259C44.3333 36.352 44.3333 34.6235 44.3333 31.1666V23.3925C44.3333 20.9033 44.3333 19.6587 43.6929 18.5647C43.0525 17.4706 41.8498 16.6606 39.4444 15.0407L37.1111 13.4693C32.7633 10.5412 30.5895 9.07715 28 9.07715C25.4105 9.07715 23.2367 10.5412 18.8889 13.4693L16.5556 15.0407C14.1502 16.6606 12.9475 17.4706 12.3071 18.5647ZM32.8333 38.4999V29.3333C32.8333 29.0843 32.4745 28.5 31.5 28.5H24.5C23.5255 28.5 23.1667 29.0843 23.1667 29.3333V38.4999H32.8333Z" fill="#222222"/>
</svg>
