<svg width="29" height="46" viewBox="0 0 29 46" fill="none" xmlns="http://www.w3.org/2000/svg">
<path fill-rule="evenodd" clip-rule="evenodd" d="M3.00241 10.1691C2.41663 10.7549 2.41663 11.6977 2.41663 13.5833V32.4167C2.41663 34.3023 2.41663 35.2451 3.00241 35.8309C3.5882 36.4167 4.53101 36.4167 6.41662 36.4167H22.5833C24.4689 36.4167 25.4117 36.4167 25.9975 35.8309C26.5833 35.2451 26.5833 34.3023 26.5833 32.4167V13.5833C26.5833 11.6977 26.5833 10.7549 25.9975 10.1691C25.4117 9.58333 24.4689 9.58333 22.5833 9.58333H6.41663C4.53101 9.58333 3.5882 9.58333 3.00241 10.1691ZM6.04163 14.3333C5.48934 14.3333 5.04163 14.781 5.04163 15.3333C5.04163 15.8856 5.48934 16.3333 6.04163 16.3333H8.45829C9.01058 16.3333 9.45829 15.8856 9.45829 15.3333C9.45829 14.781 9.01058 14.3333 8.45829 14.3333H6.04163ZM19.5416 30.6667C19.5416 30.1144 19.9893 29.6667 20.5416 29.6667H22.9583C23.5106 29.6667 23.9583 30.1144 23.9583 30.6667C23.9583 31.2189 23.5106 31.6667 22.9583 31.6667H20.5416C19.9893 31.6667 19.5416 31.2189 19.5416 30.6667ZM16.125 23C16.125 24.2697 15.7966 25.3248 15.3714 25.9993C14.9298 26.6997 14.571 26.75 14.5 26.75C14.429 26.75 14.0701 26.6997 13.6285 25.9993C13.2034 25.3248 12.875 24.2697 12.875 23C12.875 21.7303 13.2034 20.6752 13.6285 20.0007C14.0701 19.3003 14.429 19.25 14.5 19.25C14.571 19.25 14.9298 19.3003 15.3714 20.0007C15.7966 20.6752 16.125 21.7303 16.125 23ZM18.125 23C18.125 26.1756 16.502 28.75 14.5 28.75C12.4979 28.75 10.875 26.1756 10.875 23C10.875 19.8244 12.4979 17.25 14.5 17.25C16.502 17.25 18.125 19.8244 18.125 23Z" fill="#222222"/>
</svg>
