<svg width="47" height="43" viewBox="0 0 47 43" fill="none" xmlns="http://www.w3.org/2000/svg">
<path fill-rule="evenodd" clip-rule="evenodd" d="M41.125 21.5C41.125 30.4056 33.234 37.625 23.5 37.625C13.766 37.625 5.875 30.4056 5.875 21.5C5.875 12.5944 13.766 5.375 23.5 5.375C33.234 5.375 41.125 12.5944 41.125 21.5ZM25.4583 32.25C25.4583 33.2395 24.5816 34.0417 23.5 34.0417C22.4184 34.0417 21.5417 33.2395 21.5417 32.25C21.5417 31.2605 22.4184 30.4583 23.5 30.4583C24.5816 30.4583 25.4583 31.2605 25.4583 32.25ZM23 9.75C19.4792 9.75 16.625 12.6042 16.625 16.125H18.625C18.625 13.7088 20.5838 11.75 23 11.75H24.228C26.5183 11.75 28.375 13.6067 28.375 15.897V16.6373C28.375 18.0218 27.4701 19.2438 26.1458 19.6477C23.9799 20.3082 22.5 22.3066 22.5 24.5711V28.6667H24.5V24.5711C24.5 23.1865 25.4049 21.9646 26.7292 21.5607C28.8951 20.9001 30.375 18.9017 30.375 16.6373V15.897C30.375 12.5021 27.6229 9.75 24.228 9.75H23Z" fill="#222222"/>
</svg>
