<svg width="36" height="42" viewBox="0 0 36 42" fill="none" xmlns="http://www.w3.org/2000/svg">
<path fill-rule="evenodd" clip-rule="evenodd" d="M3.87868 7.87868C3 8.75736 3 10.1716 3 13V16.375C3 16.4911 3 16.5491 3.00482 16.598C3.05158 17.0728 3.42721 17.4484 3.90198 17.4952C3.95087 17.5 4.00892 17.5 4.125 17.5C4.47325 17.5 4.64738 17.5 4.79405 17.5144C6.21838 17.6547 7.34527 18.7816 7.48555 20.2059C7.5 20.3526 7.5 20.5267 7.5 20.875V21.125C7.5 21.4733 7.5 21.6474 7.48555 21.7941C7.34527 23.2184 6.21838 24.3453 4.79405 24.4856C4.64738 24.5 4.47325 24.5 4.125 24.5C4.00892 24.5 3.95087 24.5 3.90198 24.5048C3.42721 24.5516 3.05158 24.9272 3.00482 25.402C3 25.4509 3 25.5089 3 25.625V29C3 31.8284 3 33.2426 3.87868 34.1213C4.75736 35 6.17157 35 9 35H27C29.8284 35 31.2426 35 32.1213 34.1213C33 33.2426 33 31.8284 33 29V25.625C33 25.5089 33 25.4509 32.9952 25.402C32.9484 24.9272 32.5728 24.5516 32.098 24.5048C32.0491 24.5 31.9911 24.5 31.875 24.5C31.5267 24.5 31.3526 24.5 31.2059 24.4856C29.7816 24.3453 28.6547 23.2184 28.5144 21.7941C28.5 21.6474 28.5 21.4733 28.5 21.125V20.875C28.5 20.5267 28.5 20.3526 28.5144 20.2059C28.6547 18.7816 29.7816 17.6547 31.2059 17.5144C31.3526 17.5 31.5267 17.5 31.875 17.5C31.9911 17.5 32.0491 17.5 32.098 17.4952C32.5728 17.4484 32.9484 17.0728 32.9952 16.598C33 16.5491 33 16.4911 33 16.375V13C33 10.1716 33 8.75736 32.1213 7.87868C31.2426 7 29.8284 7 27 7H9C6.17157 7 4.75736 7 3.87868 7.87868ZM17.9183 17.5104C17.7134 17.5632 17.5873 17.9438 17.3351 18.705C17.1917 19.1378 17.12 19.3543 16.9858 19.5015C16.9482 19.5428 16.9073 19.5796 16.8638 19.6113C16.7088 19.7245 16.5152 19.7455 16.128 19.7875H16.128C15.4725 19.8585 15.1448 19.8941 15.0447 20.1203C15.024 20.1672 15.0099 20.2179 15.003 20.2704C14.9698 20.5239 15.2108 20.7893 15.6926 21.32L15.8264 21.4674C16.0517 21.7156 16.1643 21.8396 16.2295 21.9945C16.2686 22.0874 16.2948 22.1874 16.3071 22.2906C16.3275 22.4626 16.2945 22.6426 16.2286 23.0025L16.205 23.1312C16.0867 23.7767 16.0276 24.0995 16.1014 24.2582C16.1677 24.4007 16.2899 24.4919 16.4249 24.4997C16.5751 24.5084 16.7868 24.2996 17.2102 23.8818L17.2102 23.8818C17.4892 23.6066 17.6286 23.469 17.7835 23.4153C17.925 23.3662 18.075 23.3662 18.2165 23.4153C18.3714 23.469 18.5108 23.6066 18.7898 23.8818L18.7898 23.8818C19.2132 24.2996 19.4249 24.5084 19.5751 24.4997C19.7101 24.4919 19.8323 24.4007 19.8986 24.2582C19.9724 24.0995 19.9133 23.7767 19.795 23.1312L19.795 23.1312L19.7714 23.0025L19.7714 23.0025C19.7054 22.6425 19.6725 22.4626 19.6929 22.2906C19.7052 22.1874 19.7314 22.0874 19.7705 21.9945C19.8357 21.8396 19.9483 21.7156 20.1736 21.4674L20.3074 21.32C20.7892 20.7893 21.0302 20.5239 20.997 20.2704C20.9901 20.2179 20.976 20.1672 20.9553 20.1203C20.8552 19.8941 20.5275 19.8585 19.872 19.7875C19.4848 19.7455 19.2912 19.7245 19.1362 19.6113C19.0927 19.5796 19.0518 19.5428 19.0142 19.5015C18.88 19.3543 18.8083 19.1378 18.6649 18.705C18.4127 17.9438 18.2866 17.5632 18.0817 17.5104C18.0278 17.4965 17.9722 17.4965 17.9183 17.5104Z" fill="#222222"/>
</svg>
